<?xml version="1.0" standalone="no"?><!DOCTYPE svg PUBLIC "-//W3C//DTD SVG 1.1//EN" "http://www.w3.org/Graphics/SVG/1.1/DTD/svg11.dtd"><svg t="1665972690842" class="icon" viewBox="0 0 1024 1024" version="1.1" xmlns="http://www.w3.org/2000/svg" p-id="2641" xmlns:xlink="http://www.w3.org/1999/xlink" width="24" height="24"><path d="M819.2 695.9H690.3c-78.6 0-171.9 31-171.9 31v52.9h300.8v-83.9zM217.6 695.9h128.9c78.6 0 171.9 31 171.9 31v52.9H217.6v-83.9z" fill="#00E7DD" p-id="2642"></path><path d="M820.3 259.7h-75.2v-60.2h-15c-2.3 0-4.3 0.6-6.3 1.5-2.8-0.9-5.7-1.5-8.8-1.5h-60.2c-59.4 0-120.3 15-120.3 15-5.5 0-10.6 1.6-15 4.2-4.4-2.6-9.5-4.2-15-4.2 0 0-60.9-15-120.3-15H324c-3.1 0-6 0.6-8.8 1.5-1.9-0.9-4-1.5-6.3-1.5h-15v60.2h-75.2c-8.3 0-15 6.7-15 15v496.4c0 8.3 6.7 15 15 15h122.2c71.4 0 155.9 11.7 174.7 14.5 1.3 0.3 2.6 0.6 3.9 0.6 1.4 0 2.7-0.2 3.9-0.6 18.8-2.7 103.3-14.5 174.7-14.5h122.2c8.3 0 15-6.7 15-15V274.7c0-8.3-6.7-15-15-15z m-586.6 30.1h60.2v376h-60.2v-376z m270.7 481.3s-62.8-15-137.3-15H233.6v-60.2h60.2V726h15c2.3 0 4.3-0.6 6.3-1.5 2.8 0.9 5.7 1.5 8.8 1.5h60.2c60.2 0 120.3 15 120.3 15v30.1z m0-75.2c0 8.3-6.7 15-15 15 0 0-52.6-15-105.3-15H339c-8.3 0-15-6.7-15-15V244.7c0-8.3 6.7-15 15-15h45.1c50.4 0 105.3 15 105.3 15 8.3 0 15 6.7 15 15v436.2z m30.1-436.2c0-8.3 6.7-15 15-15 0 0 54.9-15 105.3-15H700c8.3 0 15 6.7 15 15v436.2c0 8.3-6.7 15-15 15h-45.1c-52.6 0-105.3 15-105.3 15-8.3 0-15-6.7-15-15V259.7z m270.8 496.4H701.9c-74.4 0-167.3 15-167.3 15V741s60.2-15 120.3-15h60.2c3.1 0 6-0.6 8.8-1.5 1.9 0.9 4 1.5 6.3 1.5h15v-30.1h60.2v60.2z m0-90.3h-60.2v-376h60.2v376z" fill="#008CFF" p-id="2643"></path></svg>
