<?xml version="1.0" standalone="no"?><!DOCTYPE svg PUBLIC "-//W3C//DTD SVG 1.1//EN" "http://www.w3.org/Graphics/SVG/1.1/DTD/svg11.dtd"><svg t="1665972741587" class="icon" viewBox="0 0 1024 1024" version="1.1" xmlns="http://www.w3.org/2000/svg" p-id="6385" xmlns:xlink="http://www.w3.org/1999/xlink" width="24" height="24"><path d="M682.666667 275.2c130.133333 64 213.333333 196.266667 213.333333 343.466667V648.533333C878.933333 844.8 714.666667 1002.666667 512 1002.666667c-211.2 0-384-172.8-384-384 0-147.2 83.2-279.466667 213.333333-343.466667V106.666667h-21.333333c-23.466667 0-42.666667-19.2-42.666667-42.666667s19.2-42.666667 42.666667-42.666667h384c23.466667 0 42.666667 19.2 42.666667 42.666667s-19.2 42.666667-42.666667 42.666667h-21.333333v168.533333z m72.533333 302.933333c17.066667 6.4 32 12.8 53.333333 17.066667-8.533333-113.066667-78.933333-211.2-185.6-253.866667-17.066667-6.4-25.6-21.333333-25.6-40.533333V106.666667h-170.666666v196.266666c0 17.066667-10.666667 32-25.6 40.533334-93.866667 38.4-160 119.466667-179.2 215.466666 34.133333 4.266667 59.733333 14.933333 81.066666 23.466667 25.6 10.666667 49.066667 19.2 98.133334 19.2s72.533333-8.533333 98.133333-19.2c29.866667-12.8 64-25.6 130.133333-25.6 61.866667-4.266667 96 10.666667 125.866667 21.333333zM512 917.333333c142.933333 0 262.4-102.4 292.266667-236.8-34.133333-4.266667-59.733333-14.933333-81.066667-23.466666-25.6-10.666667-49.066667-19.2-98.133333-19.2s-70.4 8.533333-98.133334 19.2c-29.866667 12.8-64 25.6-130.133333 25.6-66.133333 0-100.266667-12.8-130.133333-25.6-17.066667-6.4-32-12.8-53.333334-17.066667 12.8 155.733333 142.933333 277.333333 298.666667 277.333333z" fill="#2F3CF4" p-id="6386"></path></svg>
