<svg xmlns="http://www.w3.org/2000/svg"  viewBox="0 0 24 24" width="24px" height="24px"><path d="M13.36,13.974c0.138,0.03,0.32,0.059,0.678,0.059c1.435,0,2.447-0.779,2.548-1.874 c0.148-1.583-0.75-2.137-2.262-2.127c-0.196,0-0.468,0-0.612,0.029L13.36,13.974L13.36,13.974z" opacity=".3"/><path d="M6.217,13.408c0.447,0.18,1.379,0.359,2.132,0.359c0.812,0,1.264-0.247,1.3-0.632c0.033-0.35-0.299-0.398-1.216-0.637 c-1.267-0.342-2.075-0.871-1.996-1.717c0.092-0.982,1.286-1.724,3.118-1.724c0.893,0,1.759,0.069,2.208,0.231l-0.154,1.238 c-0.291-0.112-1.406-0.266-2.16-0.266c-0.765,0-1.16,0.265-1.188,0.555c-0.034,0.367,0.363,0.385,1.356,0.676 c1.345,0.376,1.933,0.905,1.856,1.725C11.382,14.18,10.308,15,8.163,15C7.27,15,6.5,14.821,6.076,14.641L6.217,13.408L6.217,13.408 z"/><path d="M18.821,9.366c4.884-1.017,5.305,0.811,5.154,2.428l-0.284,2.992h-1.55l0.259-2.729c0.056-0.601,0.405-1.776-1.281-1.732 c-0.584,0.016-0.873,0.104-0.873,0.104s-0.051,0.726-0.112,1.263l-0.294,3.095h-1.52l0.302-3.05 C18.622,11.736,18.821,9.366,18.821,9.366z"/><path d="M12.653,9.224c0.349-0.042,0.884-0.084,1.621-0.084c1.23,0,2.225,0.236,2.841,0.734c0.553,0.464,0.921,1.214,0.819,2.302 c-0.094,1.012-0.57,1.721-1.264,2.159c-0.635,0.413-1.434,0.59-2.637,0.59c-0.709,0-1.385-0.042-1.9-0.126L12.653,9.224 L12.653,9.224z M13.669,13.69c0.119,0.025,0.274,0.051,0.582,0.051c1.231,0,2.098-0.668,2.185-1.607 c0.127-1.358-0.643-1.832-1.94-1.824c-0.168,0-0.401,0-0.525,0.025L13.669,13.69L13.669,13.69z"/><path d="M5.335,14.813C5.043,14.924,4.439,15,3.595,15c-2.427,0-3.737-1.254-3.583-2.913 C0.198,10.112,2.139,9,4.264,9c0.823,0,1.308,0.073,1.762,0.195L5.88,10.526c-0.302-0.112-1.01-0.215-1.583-0.215 c-1.25,0-2.312,0.41-2.434,1.707c-0.109,1.16,0.637,1.714,2.044,1.714c0.49,0,1.212-0.077,1.545-0.189 C5.452,13.544,5.335,14.813,5.335,14.813z"/></svg>