<?xml version="1.0" standalone="no"?><!DOCTYPE svg PUBLIC "-//W3C//DTD SVG 1.1//EN" "http://www.w3.org/Graphics/SVG/1.1/DTD/svg11.dtd"><svg t="1665972718544" class="icon" viewBox="0 0 1024 1024" version="1.1" xmlns="http://www.w3.org/2000/svg" p-id="4589" xmlns:xlink="http://www.w3.org/1999/xlink" width="24" height="24"><path d="M511.97 673.68a60.92 60.92 0 0 1-31.81-8.95L92.23 427.75C74.7 417.13 64.09 398.62 64 378.24c-0.08-20.38 10.42-39.06 28.06-49.96L480.13 91.37c19.65-12 44.06-11.97 63.71-0.03L931.78 328.2c17.81 10.98 28.31 29.67 28.23 50.04-0.08 20.32-10.64 38.81-28.23 49.51L543.9 664.7c-9.86 5.99-20.89 8.98-31.93 8.98z m-334.9-295.7L512 582.56l334.9-204.61L512 173.5 177.07 377.98z m-39.82-24.33l0.2 0.11c-0.09-0.05-0.15-0.08-0.2-0.11z m749.5 0c-0.03 0-0.06 0.03-0.06 0.03s0.04-0.03 0.06-0.03z" fill="#7373FF" p-id="4590"></path><path d="M512.08 941.62c-99.75 0-191.2-33.19-250.87-91.06a43.32 43.32 0 0 1-13.18-31.13V498.56c0-15.69 8.47-30.15 22.16-37.82a43.23 43.23 0 0 1 43.81 0.82l198 121 198.2-121.15c13.41-8.16 30.17-8.5 43.81-0.82a43.354 43.354 0 0 1 22.16 37.82v321.01c0 11.77-4.77 23-13.24 31.19-59.9 57.85-151.32 91.01-250.85 91.01zM334.74 799.87c43.58 34.69 108.39 55.04 177.34 55.04 68.81 0 133.62-20.35 177.37-55.1V575.73L543.9 664.7c-19.67 11.94-44.06 12-63.73 0.03l-145.42-88.85v223.99zM916.64 710.43c-23.94 0-43.35-19.42-43.35-43.35V378.04c0-23.94 19.42-43.35 43.35-43.35 23.94 0 43.35 19.42 43.35 43.35v289.03c0.01 23.94-19.41 43.36-43.35 43.36z" fill="#7373FF" p-id="4591"></path></svg>
