<svg fill="#000000" xmlns="http://www.w3.org/2000/svg"  viewBox="0 0 24 24" width="24px" height="24px"><path d="M 6 1 C 6 2.082 5.307 4.753 2 6 L 2 8 C 2.8211822 7.8009205 3.5264363 7.5270991 4.1464844 7.2070312 C 4.7890909 8.1272046 5 9.4338157 5 10 L 7 10 C 7 9.165 6.589 8.018 6 7 L 4.5253906 7 C 5.4935107 6.4327991 6.208574 5.7386641 6.7285156 5 L 7.2050781 5 C 7.6700669 5.7324397 8 6.6526919 8 7 L 10 7 C 10 6.4317609 9.7994357 5.7182367 9.4921875 5 L 12 5 L 12 3 L 7.6875 3 C 7.905272 2.2699416 8 1.5733224 8 1 L 6 1 z M 16 1 C 16 2.082 15.307 4.753 12 6 L 12 8 C 14.360793 7.4276721 15.831121 6.2748991 16.728516 5 L 17.205078 5 C 17.670067 5.7324397 18 6.6526919 18 7 L 20 7 C 20 6.4317609 19.799436 5.7182367 19.492188 5 L 22 5 L 22 3 L 17.6875 3 C 17.905272 2.2699416 18 1.5733224 18 1 L 16 1 z M 12 8 L 8 8 L 8 10 L 18 10 L 18 19 C 18 19.56503 17.56503 20 17 20 L 15 20 L 15 22 L 17 22 C 18.64497 22 20 20.64497 20 19 L 20 8 L 12 8 z M 4 11 L 4 22 L 6 22 L 6 11 L 4 11 z M 8 12 L 8 20 L 13 20 C 14.64497 20 16 18.64497 16 17 L 16 12 L 8 12 z M 10 14 L 14 14 L 14 15 L 10 15 L 10 14 z M 10 17 L 14 17 C 14 17.56503 13.56503 18 13 18 L 10 18 L 10 17 z"/></svg>